<svg id="Layer_1" data-name="Layer 1" xmlns="http://www.w3.org/2000/svg" viewBox="0 0 31.4 31.4"><defs><style>.cls-1{fill:#464b50;}.cls-2{fill:#fff;}</style></defs><title>element-icon-video</title><circle class="cls-1" cx="15.7" cy="15.7" r="15.7"/><path class="cls-2" d="M24.54,10.81V21.19a.57.57,0,0,1-.37.56.69.69,0,0,1-.24.05.58.58,0,0,1-.43-.18l-3.84-3.85v1.59a2.75,2.75,0,0,1-2.74,2.74H10.2a2.73,2.73,0,0,1-2.74-2.74V12.64A2.73,2.73,0,0,1,10.2,9.9h6.72a2.75,2.75,0,0,1,2.74,2.74v1.58l3.84-3.84a.58.58,0,0,1,.43-.18.69.69,0,0,1,.24.05A.57.57,0,0,1,24.54,10.81Z" transform="translate(-0.3 -0.3)"/></svg>